<?xml version="1.0" encoding="utf-8"?>
<!-- Generator: Adobe Illustrator 22.0.1, SVG Export Plug-In . SVG Version: 6.00 Build 0)  -->
<svg version="1.1" id="Layer_1" xmlns="http://www.w3.org/2000/svg" xmlns:xlink="http://www.w3.org/1999/xlink" x="0px" y="0px"
	 viewBox="0 0 336.8 336.8" style="enable-background:new 0 0 336.8 336.8;" xml:space="preserve">
<style type="text/css">
	.st0{fill:#FFFFFF;}
</style>
<g>
	<path d="M26,150.6c0-4.7,0-9.3,0-14c0.5-1,1-2,1.5-3.1c3.5-8.6,5.2-9.7,14.5-9.7c66.5,0.2,133,0.4,199.6,0.7c20,0.1,40,0.9,60,1.1
		c5.6,0.1,9.1,2.5,10,7.7c1,5.2,1.6,10.5,1.5,15.8c-0.1,15.3-0.7,30.6-1.1,45.9c-0.1,4,0.1,8-0.8,11.9c-1.2,5.7-5,7.8-10.7,7
		c-2.8-0.4-5.6-0.7-8.5-0.8c-28.5-1.1-56.9-2.4-85.4-3.1c-40.3-1.1-80.6-1.6-120.9-2.5c-15.5-0.3-31-0.8-46.4-1.5
		c-8.1-0.4-10.7-2.5-11.4-10.8c-0.9-9.4-0.3-18.9-0.6-28.4C27.2,161.4,26.5,156,26,150.6z M296.2,156.8c-84.1,0-168,0-252.1,0
		c0,5.6,0,11.5,0,18.2c83.3,1.5,166.6,3.1,250.2,4.6C294.9,172.6,295.5,165.2,296.2,156.8z"/>
	<path d="M248.2,13.5c18.3,0,36.7,0,55,0c1.8,1.6,3.9,3.1,5.4,5c5,6,4.8,13.2,4.4,20.5c-0.5,7.8-0.5,15.6-0.8,23.4
		c-0.3,8.3-0.1,16.7-1.2,24.9c-0.9,7.2-4.1,9.1-11.2,9.3c-21.6,0.6-43.3,1.4-64.9,1.9c-43.8,1-87.6,1.8-131.4,3
		c-21.3,0.6-42.6,1.7-63.9,2.9c-7.2,0.4-11.2-1.8-12.1-9c-0.6-4.9,0.2-10,0-15c-0.4-10.9-1-21.9-1.5-32.8c0-6.7,0-13.3,0-20
		c2.4-6.1,4.2-11.7,13-11.7c34.8,0,69.6-0.8,104.4-1.1c33.2-0.3,66.3-0.2,99.5-0.3C244.7,14.4,246.4,13.8,248.2,13.5z M44.9,70.1
		c83.7-1.6,167-3.1,250.1-4.7c0-6.8,0-12.7,0-18.1c-84.2,0-167.9,0-251.9,0C43.8,55.5,44.3,62.7,44.9,70.1z"/>
	<path d="M26,266.7c0-6.7,0-13.3,0-20c0.4-0.9,0.9-1.7,1.2-2.7c2.5-7.4,3.9-8.6,11.9-8.8c20.3-0.4,40.6-0.7,61-1
		c21.2-0.2,42.3-0.2,63.5-0.4c45.7-0.2,91.3-0.5,137-0.8c3.8,0,6.1,1.5,8.3,4.5c4.6,6.3,4.6,13.3,4.2,20.6
		c-0.5,7.6-0.5,15.3-0.8,22.9c-0.3,8.3-0.1,16.7-1.1,24.9c-0.9,7.5-4,9.5-11.5,9.7c-14.8,0.4-29.6,0.9-44.5,1.2
		c-49.5,1.2-98.9,2.1-148.4,3.5c-22.5,0.6-44.9,1.9-67.4,3.1c-7.3,0.4-11.3-2.2-12.1-9.6c-0.5-4.8,0.3-9.6,0.1-14.5
		C27.1,288.6,26.5,277.6,26,266.7z M295.1,266.4c-84.3,0-168.1,0-252,0c0.7,8.3,1.3,15.7,1.8,22.9c83.7-1.6,167-3.1,250.2-4.7
		C295.1,277.8,295.1,272,295.1,266.4z"/>
	<path class="st0" d="M26,266.7c0.5,10.9,1.1,21.9,1.5,32.8c0.2,4.8-0.6,9.7-0.1,14.5c0.7,7.4,4.8,10,12.1,9.6
		c22.4-1.2,44.9-2.5,67.4-3.1c49.4-1.4,98.9-2.3,148.4-3.5c14.8-0.3,29.6-0.8,44.5-1.2c7.5-0.2,10.5-2.3,11.5-9.7
		c1-8.2,0.8-16.6,1.1-24.9c0.3-7.6,0.3-15.3,0.8-22.9c0.5-7.3,0.4-14.3-4.2-20.6c-2.2-3-4.5-4.5-8.3-4.5c-45.7,0.3-91.3,0.5-137,0.8
		c-21.2,0.1-42.3,0.1-63.5,0.4c-20.3,0.2-40.6,0.6-61,1c-7.9,0.2-9.3,1.3-11.9,8.8c-0.3,0.9-0.8,1.8-1.2,2.7c0-32,0-64.1,0-96.1
		c0.5,5.4,1.1,10.8,1.3,16.2c0.3,9.5-0.3,19,0.6,28.4c0.8,8.3,3.3,10.4,11.4,10.8c15.5,0.8,31,1.2,46.4,1.5
		c40.3,0.9,80.6,1.5,120.9,2.5c28.5,0.7,56.9,2,85.4,3.1c2.8,0.1,5.6,0.4,8.5,0.8c5.6,0.7,9.4-1.4,10.7-7c0.8-3.8,0.6-7.9,0.8-11.9
		c0.4-15.3,0.9-30.6,1.1-45.9c0-5.3-0.6-10.6-1.5-15.8c-1-5.2-4.4-7.7-10-7.7c-20-0.2-40-1-60-1.1c-66.5-0.3-133-0.5-199.6-0.7
		c-9.3,0-11,1.1-14.5,9.7c-0.4,1-1,2-1.5,3.1c0-29.7,0-59.4,0-89.1c0.5,10.9,1.1,21.9,1.5,32.8c0.2,5-0.6,10,0,15
		c0.8,7.2,4.9,9.4,12.1,9c21.3-1.2,42.6-2.3,63.9-2.9c43.8-1.2,87.6-1.9,131.4-3c21.6-0.5,43.3-1.3,64.9-1.9
		c7.1-0.2,10.3-2.2,11.2-9.3c1.1-8.2,0.9-16.6,1.2-24.9c0.3-7.8,0.3-15.6,0.8-23.4c0.4-7.3,0.6-14.4-4.4-20.5
		c-1.5-1.9-3.6-3.3-5.4-5c3.7,0,7.3,0,11,0c0,104.1,0,208.2,0,312.3c-96.1,0-192.2,0-288.2,0C26,306.1,26,286.4,26,266.7z"/>
	<path class="st0" d="M248.2,13.5c-1.8,0.3-3.5,0.9-5.3,0.9c-33.2,0.1-66.3,0.1-99.5,0.3C108.6,15,73.8,15.8,39,15.8
		c-8.8,0-10.7,5.6-13,11.7c0-4.7,0-9.3,0-14C100.1,13.5,174.1,13.5,248.2,13.5z"/>
	<path class="st0" d="M296.2,156.8c-0.7,8.4-1.3,15.8-1.8,22.9c-83.6-1.6-166.9-3.1-250.2-4.6c0-6.7,0-12.6,0-18.2
		C128.2,156.8,212,156.8,296.2,156.8z"/>
	<path class="st0" d="M44.9,70.1c-0.6-7.3-1.1-14.6-1.8-22.8c84,0,167.8,0,251.9,0c0,5.5,0,11.4,0,18.1
		C212,66.9,128.6,68.5,44.9,70.1z"/>
	<path class="st0" d="M295.1,266.4c0,5.6,0,11.4,0,18.2c-83.2,1.5-166.5,3.1-250.2,4.7c-0.6-7.2-1.2-14.6-1.8-22.9
		C127.1,266.4,210.8,266.4,295.1,266.4z"/>
</g>
</svg>
