<svg xmlns="http://www.w3.org/2000/svg" viewBox="0 0 287.18 309.94"><defs><style>.a{fill:#a48269;}</style></defs><path class="a" d="M39,150.6v-14c.45-1,.9-2,1.34-3.1,3.14-8.6,4.66-9.7,13-9.7q89.37.3,178.81.7c17.92.1,35.83.9,53.75,1.1,5,.1,8.15,2.5,9,7.7a85.28,85.28,0,0,1,1.34,15.8c-.09,15.3-.63,30.6-1,45.9-.08,4,.09,8-.71,11.9-1.08,5.7-4.48,7.8-9.59,7a63.47,63.47,0,0,0-7.61-.8c-25.53-1.1-51-2.4-76.5-3.1-36.11-1.1-72.21-1.6-108.31-2.5-13.88-.3-27.77-.8-41.57-1.5-7.25-.4-9.58-2.5-10.21-10.8-.8-9.4-.27-18.9-.54-28.4C40.07,161.4,39.45,156,39,150.6Zm242.05,6.2H55.21V175q111.95,2.25,224.14,4.6C279.89,172.6,280.42,165.2,281.05,156.8Z" transform="translate(-26 -13.5)"/><path class="a" d="M248.2,13.5h55a42.66,42.66,0,0,1,5.4,5c5,6,4.8,13.2,4.4,20.5-.5,7.8-.5,15.6-.8,23.4-.3,8.3-.1,16.7-1.2,24.9-.9,7.2-4.1,9.1-11.2,9.3-21.6.6-43.3,1.4-64.9,1.9-43.8,1-87.6,1.8-131.4,3-21.3.6-42.6,1.7-63.9,2.9-7.2.4-11.2-1.8-12.1-9-.6-4.9.2-10,0-15-.4-10.9-1-21.9-1.5-32.8v-20c2.4-6.1,4.2-11.7,13-11.7,34.8,0,69.6-.8,104.4-1.1,33.2-.3,66.3-.2,99.5-.3A49.37,49.37,0,0,0,248.2,13.5ZM44.9,70.1Q170.45,67.7,295,65.4V47.3H43.1C43.8,55.5,44.3,62.7,44.9,70.1Z" transform="translate(-26 -13.5)"/><path class="a" d="M55.21,266.7v-20a25.15,25.15,0,0,0,.95-2.7c2-7.4,3.07-8.6,9.36-8.8,16-.4,32-.7,48-1,16.69-.2,33.29-.2,50-.4q53.94-.3,107.81-.8c3,0,4.8,1.5,6.54,4.5,3.62,6.3,3.62,13.3,3.3,20.6-.39,7.6-.39,15.3-.63,22.9-.23,8.3-.08,16.7-.86,24.9-.71,7.5-3.15,9.5-9.05,9.7-11.65.4-23.3.9-35,1.2-39,1.2-77.83,2.1-116.79,3.5-17.7.6-35.33,1.9-53,3.1-5.74.4-8.89-2.2-9.52-9.6-.4-4.8.23-9.6.08-14.5C56.08,288.6,55.61,277.6,55.21,266.7ZM267,266.4H68.67c.55,8.3,1,15.7,1.42,22.9q98.81-2.4,196.91-4.7Z" transform="translate(-26 -13.5)"/></svg>